<?xml version="1.0" encoding="UTF-8" standalone="no"?>
<!DOCTYPE svg PUBLIC "-//W3C//DTD SVG 1.1//EN"
 "http://www.w3.org/Graphics/SVG/1.1/DTD/svg11.dtd">
<!-- Generated by graphviz version 2.38.0 (20140413.2041)
 -->
<!-- Title: G Pages: 1 -->
<svg width="2959pt" height="836pt"
 viewBox="0.00 0.00 2959.35 836.00" xmlns="http://www.w3.org/2000/svg" xmlns:xlink="http://www.w3.org/1999/xlink">
<g id="graph0" class="graph" transform="scale(1 1) rotate(0) translate(4 832)">
<title>G</title>
<polygon fill="white" stroke="none" points="-4,4 -4,-832 2955.35,-832 2955.35,4 -4,4"/>
<!-- 0 -->
<g id="node1" class="node"><title>0</title>
<ellipse fill="red" stroke="black" cx="600.345" cy="-810" rx="38.9931" ry="18"/>
<text text-anchor="middle" x="600.345" y="-806.3" font-family="Times New Roman,serif" font-size="14.00">INICIO</text>
</g>
<!-- 1 -->
<g id="node2" class="node"><title>1</title>
<ellipse fill="red" stroke="black" cx="600.345" cy="-738" rx="72.5877" ry="18"/>
<text text-anchor="middle" x="600.345" y="-734.3" font-family="Times New Roman,serif" font-size="14.00">INSTRUCCION</text>
</g>
<!-- 0&#45;&gt;1 -->
<g id="edge1" class="edge"><title>0&#45;&gt;1</title>
<path fill="none" stroke="black" d="M600.345,-791.697C600.345,-783.983 600.345,-774.712 600.345,-766.112"/>
<polygon fill="black" stroke="black" points="603.846,-766.104 600.345,-756.104 596.846,-766.104 603.846,-766.104"/>
</g>
<!-- 2 -->
<g id="node3" class="node"><title>2</title>
<ellipse fill="red" stroke="black" cx="600.345" cy="-666" rx="63.8893" ry="18"/>
<text text-anchor="middle" x="600.345" y="-662.3" font-family="Times New Roman,serif" font-size="14.00">OPERACION</text>
</g>
<!-- 1&#45;&gt;2 -->
<g id="edge2" class="edge"><title>1&#45;&gt;2</title>
<path fill="none" stroke="black" d="M600.345,-719.697C600.345,-711.983 600.345,-702.712 600.345,-694.112"/>
<polygon fill="black" stroke="black" points="603.846,-694.104 600.345,-684.104 596.846,-694.104 603.846,-694.104"/>
</g>
<!-- 3 -->
<g id="node4" class="node"><title>3</title>
<ellipse fill="red" stroke="black" cx="421.345" cy="-594" rx="61.1893" ry="18"/>
<text text-anchor="middle" x="421.345" y="-590.3" font-family="Times New Roman,serif" font-size="14.00">SELECCION</text>
</g>
<!-- 2&#45;&gt;3 -->
<g id="edge3" class="edge"><title>2&#45;&gt;3</title>
<path fill="none" stroke="black" d="M564.552,-651.003C536.197,-639.914 496.43,-624.363 465.994,-612.46"/>
<polygon fill="black" stroke="black" points="467.054,-609.117 456.467,-608.734 464.505,-615.636 467.054,-609.117"/>
</g>
<!-- 10 -->
<g id="node11" class="node"><title>10</title>
<ellipse fill="red" stroke="black" cx="780.345" cy="-594" rx="63.8893" ry="18"/>
<text text-anchor="middle" x="780.345" y="-590.3" font-family="Times New Roman,serif" font-size="14.00">OPERACION</text>
</g>
<!-- 2&#45;&gt;10 -->
<g id="edge10" class="edge"><title>2&#45;&gt;10</title>
<path fill="none" stroke="black" d="M636.339,-651.003C664.667,-639.986 704.323,-624.564 734.85,-612.693"/>
<polygon fill="black" stroke="black" points="736.363,-615.86 744.415,-608.973 733.826,-609.336 736.363,-615.86"/>
</g>
<!-- 4 -->
<g id="node5" class="node"><title>4</title>
<ellipse fill="red" stroke="black" cx="51.3454" cy="-522" rx="51.1914" ry="18"/>
<text text-anchor="middle" x="51.3454" y="-518.3" font-family="Times New Roman,serif" font-size="14.00">seleccionar</text>
</g>
<!-- 3&#45;&gt;4 -->
<g id="edge4" class="edge"><title>3&#45;&gt;4</title>
<path fill="none" stroke="black" d="M367.239,-585.539C305.101,-576.558 200.276,-560.14 111.345,-540 107.247,-539.072 103.012,-538.034 98.7767,-536.942"/>
<polygon fill="black" stroke="black" points="99.5202,-533.518 88.9557,-534.319 97.7141,-540.281 99.5202,-533.518"/>
</g>
<!-- 5 -->
<g id="node6" class="node"><title>5</title>
<ellipse fill="red" stroke="black" cx="248.345" cy="-522" rx="128.077" ry="18"/>
<text text-anchor="middle" x="248.345" y="-518.3" font-family="Times New Roman,serif" font-size="14.00">PARAMETROS_SELECCION</text>
</g>
<!-- 3&#45;&gt;5 -->
<g id="edge5" class="edge"><title>3&#45;&gt;5</title>
<path fill="none" stroke="black" d="M386.752,-579.003C361.238,-568.679 326.163,-554.487 297.707,-542.973"/>
<polygon fill="black" stroke="black" points="298.917,-539.687 288.334,-539.18 296.291,-546.176 298.917,-539.687"/>
</g>
<!-- 7 -->
<g id="node8" class="node"><title>7</title>
<ellipse fill="red" stroke="black" cx="421.345" cy="-522" rx="27" ry="18"/>
<text text-anchor="middle" x="421.345" y="-518.3" font-family="Times New Roman,serif" font-size="14.00">de</text>
</g>
<!-- 3&#45;&gt;7 -->
<g id="edge7" class="edge"><title>3&#45;&gt;7</title>
<path fill="none" stroke="black" d="M421.345,-575.697C421.345,-567.983 421.345,-558.712 421.345,-550.112"/>
<polygon fill="black" stroke="black" points="424.846,-550.104 421.345,-540.104 417.846,-550.104 424.846,-550.104"/>
</g>
<!-- 8 -->
<g id="node9" class="node"><title>8</title>
<ellipse fill="red" stroke="black" cx="543.345" cy="-522" rx="76.8869" ry="18"/>
<text text-anchor="middle" x="543.345" y="-518.3" font-family="Times New Roman,serif" font-size="14.00">LISTA_TABLAS</text>
</g>
<!-- 3&#45;&gt;8 -->
<g id="edge8" class="edge"><title>3&#45;&gt;8</title>
<path fill="none" stroke="black" d="M448.119,-577.638C465.358,-567.747 487.991,-554.761 506.865,-543.931"/>
<polygon fill="black" stroke="black" points="508.857,-546.824 515.789,-538.811 505.374,-540.752 508.857,-546.824"/>
</g>
<!-- 6 -->
<g id="node7" class="node"><title>6</title>
<ellipse fill="red" stroke="black" cx="248.345" cy="-450" rx="27" ry="18"/>
<text text-anchor="middle" x="248.345" y="-446.3" font-family="Times New Roman,serif" font-size="14.00">*</text>
</g>
<!-- 5&#45;&gt;6 -->
<g id="edge6" class="edge"><title>5&#45;&gt;6</title>
<path fill="none" stroke="black" d="M248.345,-503.697C248.345,-495.983 248.345,-486.712 248.345,-478.112"/>
<polygon fill="black" stroke="black" points="251.846,-478.104 248.345,-468.104 244.846,-478.104 251.846,-478.104"/>
</g>
<!-- 9 -->
<g id="node10" class="node"><title>9</title>
<ellipse fill="red" stroke="black" cx="363.345" cy="-450" rx="59.5901" ry="18"/>
<text text-anchor="middle" x="363.345" y="-446.3" font-family="Times New Roman,serif" font-size="14.00">departamento</text>
</g>
<!-- 8&#45;&gt;9 -->
<g id="edge9" class="edge"><title>8&#45;&gt;9</title>
<path fill="none" stroke="black" d="M505.612,-506.326C477.147,-495.256 438.008,-480.035 407.986,-468.36"/>
<polygon fill="black" stroke="black" points="409.173,-465.066 398.584,-464.704 406.635,-471.59 409.173,-465.066"/>
</g>
<!-- 11 -->
<g id="node12" class="node"><title>11</title>
<ellipse fill="red" stroke="black" cx="780.345" cy="-522" rx="61.1893" ry="18"/>
<text text-anchor="middle" x="780.345" y="-518.3" font-family="Times New Roman,serif" font-size="14.00">SELECCION</text>
</g>
<!-- 10&#45;&gt;11 -->
<g id="edge11" class="edge"><title>10&#45;&gt;11</title>
<path fill="none" stroke="black" d="M780.345,-575.697C780.345,-567.983 780.345,-558.712 780.345,-550.112"/>
<polygon fill="black" stroke="black" points="783.846,-550.104 780.345,-540.104 776.846,-550.104 783.846,-550.104"/>
</g>
<!-- 23 -->
<g id="node24" class="node"><title>23</title>
<ellipse fill="red" stroke="black" cx="1373.35" cy="-522" rx="63.8893" ry="18"/>
<text text-anchor="middle" x="1373.35" y="-518.3" font-family="Times New Roman,serif" font-size="14.00">OPERACION</text>
</g>
<!-- 10&#45;&gt;23 -->
<g id="edge23" class="edge"><title>10&#45;&gt;23</title>
<path fill="none" stroke="black" d="M838.014,-586.193C948.167,-573.19 1187.98,-544.881 1305.58,-530.999"/>
<polygon fill="black" stroke="black" points="1306.02,-534.471 1315.54,-529.823 1305.2,-527.52 1306.02,-534.471"/>
</g>
<!-- 12 -->
<g id="node13" class="node"><title>12</title>
<ellipse fill="red" stroke="black" cx="492.345" cy="-450" rx="51.1914" ry="18"/>
<text text-anchor="middle" x="492.345" y="-446.3" font-family="Times New Roman,serif" font-size="14.00">seleccionar</text>
</g>
<!-- 11&#45;&gt;12 -->
<g id="edge12" class="edge"><title>11&#45;&gt;12</title>
<path fill="none" stroke="black" d="M732.585,-510.594C686.342,-500.354 614.326,-483.975 552.345,-468 548.504,-467.01 544.533,-465.955 540.548,-464.874"/>
<polygon fill="black" stroke="black" points="541.252,-461.437 530.681,-462.156 539.392,-468.186 541.252,-461.437"/>
</g>
<!-- 13 -->
<g id="node14" class="node"><title>13</title>
<ellipse fill="red" stroke="black" cx="689.345" cy="-450" rx="128.077" ry="18"/>
<text text-anchor="middle" x="689.345" y="-446.3" font-family="Times New Roman,serif" font-size="14.00">PARAMETROS_SELECCION</text>
</g>
<!-- 11&#45;&gt;13 -->
<g id="edge13" class="edge"><title>11&#45;&gt;13</title>
<path fill="none" stroke="black" d="M759.239,-504.765C747.438,-495.687 732.529,-484.218 719.514,-474.207"/>
<polygon fill="black" stroke="black" points="721.347,-471.201 711.287,-467.878 717.079,-476.749 721.347,-471.201"/>
</g>
<!-- 20 -->
<g id="node21" class="node"><title>20</title>
<ellipse fill="red" stroke="black" cx="862.345" cy="-450" rx="27" ry="18"/>
<text text-anchor="middle" x="862.345" y="-446.3" font-family="Times New Roman,serif" font-size="14.00">de</text>
</g>
<!-- 11&#45;&gt;20 -->
<g id="edge20" class="edge"><title>11&#45;&gt;20</title>
<path fill="none" stroke="black" d="M799.364,-504.765C811.085,-494.759 826.208,-481.849 838.697,-471.187"/>
<polygon fill="black" stroke="black" points="841.129,-473.714 846.462,-464.559 836.584,-468.39 841.129,-473.714"/>
</g>
<!-- 21 -->
<g id="node22" class="node"><title>21</title>
<ellipse fill="red" stroke="black" cx="984.345" cy="-450" rx="76.8869" ry="18"/>
<text text-anchor="middle" x="984.345" y="-446.3" font-family="Times New Roman,serif" font-size="14.00">LISTA_TABLAS</text>
</g>
<!-- 11&#45;&gt;21 -->
<g id="edge21" class="edge"><title>11&#45;&gt;21</title>
<path fill="none" stroke="black" d="M818.716,-507.834C851.104,-496.72 897.744,-480.716 933.283,-468.521"/>
<polygon fill="black" stroke="black" points="934.669,-471.746 942.992,-465.19 932.397,-465.125 934.669,-471.746"/>
</g>
<!-- 14 -->
<g id="node15" class="node"><title>14</title>
<ellipse fill="red" stroke="black" cx="493.345" cy="-378" rx="71.4873" ry="18"/>
<text text-anchor="middle" x="493.345" y="-374.3" font-family="Times New Roman,serif" font-size="14.00">id_departamento</text>
</g>
<!-- 13&#45;&gt;14 -->
<g id="edge14" class="edge"><title>13&#45;&gt;14</title>
<path fill="none" stroke="black" d="M644.87,-433.116C614.265,-422.186 573.614,-407.667 542.123,-396.42"/>
<polygon fill="black" stroke="black" points="543.259,-393.11 532.665,-393.043 540.905,-399.702 543.259,-393.11"/>
</g>
<!-- 15 -->
<g id="node16" class="node"><title>15</title>
<ellipse fill="red" stroke="black" cx="711.345" cy="-378" rx="128.077" ry="18"/>
<text text-anchor="middle" x="711.345" y="-374.3" font-family="Times New Roman,serif" font-size="14.00">PARAMETROS_SELECCION</text>
</g>
<!-- 13&#45;&gt;15 -->
<g id="edge15" class="edge"><title>13&#45;&gt;15</title>
<path fill="none" stroke="black" d="M694.784,-431.697C697.235,-423.898 700.186,-414.509 702.913,-405.829"/>
<polygon fill="black" stroke="black" points="706.31,-406.694 705.97,-396.104 699.632,-404.595 706.31,-406.694"/>
</g>
<!-- 16 -->
<g id="node17" class="node"><title>16</title>
<ellipse fill="red" stroke="black" cx="649.345" cy="-306" rx="38.1938" ry="18"/>
<text text-anchor="middle" x="649.345" y="-302.3" font-family="Times New Roman,serif" font-size="14.00">nombre</text>
</g>
<!-- 15&#45;&gt;16 -->
<g id="edge16" class="edge"><title>15&#45;&gt;16</title>
<path fill="none" stroke="black" d="M696.337,-360.055C688.497,-351.204 678.779,-340.231 670.218,-330.566"/>
<polygon fill="black" stroke="black" points="672.616,-327.995 663.366,-322.829 667.376,-332.636 672.616,-327.995"/>
</g>
<!-- 17 -->
<g id="node18" class="node"><title>17</title>
<ellipse fill="red" stroke="black" cx="742.345" cy="-306" rx="37.0935" ry="18"/>
<text text-anchor="middle" x="742.345" y="-302.3" font-family="Times New Roman,serif" font-size="14.00">ALIAS</text>
</g>
<!-- 15&#45;&gt;17 -->
<g id="edge17" class="edge"><title>15&#45;&gt;17</title>
<path fill="none" stroke="black" d="M719.008,-359.697C722.537,-351.728 726.801,-342.1 730.714,-333.264"/>
<polygon fill="black" stroke="black" points="733.922,-334.665 734.771,-324.104 727.521,-331.831 733.922,-334.665"/>
</g>
<!-- 18 -->
<g id="node19" class="node"><title>18</title>
<ellipse fill="red" stroke="black" cx="702.345" cy="-234" rx="31.6951" ry="18"/>
<text text-anchor="middle" x="702.345" y="-230.3" font-family="Times New Roman,serif" font-size="14.00">como</text>
</g>
<!-- 17&#45;&gt;18 -->
<g id="edge18" class="edge"><title>17&#45;&gt;18</title>
<path fill="none" stroke="black" d="M732.866,-288.411C728.084,-280.042 722.18,-269.71 716.842,-260.37"/>
<polygon fill="black" stroke="black" points="719.757,-258.416 711.757,-251.47 713.679,-261.889 719.757,-258.416"/>
</g>
<!-- 19 -->
<g id="node20" class="node"><title>19</title>
<ellipse fill="red" stroke="black" cx="782.345" cy="-234" rx="29.795" ry="18"/>
<text text-anchor="middle" x="782.345" y="-230.3" font-family="Times New Roman,serif" font-size="14.00">name</text>
</g>
<!-- 17&#45;&gt;19 -->
<g id="edge19" class="edge"><title>17&#45;&gt;19</title>
<path fill="none" stroke="black" d="M751.825,-288.411C756.607,-280.042 762.511,-269.71 767.848,-260.37"/>
<polygon fill="black" stroke="black" points="771.011,-261.889 772.934,-251.47 764.934,-258.416 771.011,-261.889"/>
</g>
<!-- 22 -->
<g id="node23" class="node"><title>22</title>
<ellipse fill="red" stroke="black" cx="961.345" cy="-378" rx="59.5901" ry="18"/>
<text text-anchor="middle" x="961.345" y="-374.3" font-family="Times New Roman,serif" font-size="14.00">departamento</text>
</g>
<!-- 21&#45;&gt;22 -->
<g id="edge22" class="edge"><title>21&#45;&gt;22</title>
<path fill="none" stroke="black" d="M978.66,-431.697C976.098,-423.898 973.013,-414.509 970.161,-405.829"/>
<polygon fill="black" stroke="black" points="973.412,-404.512 966.965,-396.104 966.762,-406.697 973.412,-404.512"/>
</g>
<!-- 24 -->
<g id="node25" class="node"><title>24</title>
<ellipse fill="red" stroke="black" cx="1373.35" cy="-450" rx="61.1893" ry="18"/>
<text text-anchor="middle" x="1373.35" y="-446.3" font-family="Times New Roman,serif" font-size="14.00">SELECCION</text>
</g>
<!-- 23&#45;&gt;24 -->
<g id="edge24" class="edge"><title>23&#45;&gt;24</title>
<path fill="none" stroke="black" d="M1373.35,-503.697C1373.35,-495.983 1373.35,-486.712 1373.35,-478.112"/>
<polygon fill="black" stroke="black" points="1376.85,-478.104 1373.35,-468.104 1369.85,-478.104 1376.85,-478.104"/>
</g>
<!-- 37 -->
<g id="node38" class="node"><title>37</title>
<ellipse fill="red" stroke="black" cx="1798.35" cy="-450" rx="63.8893" ry="18"/>
<text text-anchor="middle" x="1798.35" y="-446.3" font-family="Times New Roman,serif" font-size="14.00">OPERACION</text>
</g>
<!-- 23&#45;&gt;37 -->
<g id="edge37" class="edge"><title>23&#45;&gt;37</title>
<path fill="none" stroke="black" d="M1427.17,-512.134C1505.62,-499.213 1651.1,-475.251 1734.74,-461.477"/>
<polygon fill="black" stroke="black" points="1735.32,-464.927 1744.62,-459.849 1734.19,-458.02 1735.32,-464.927"/>
</g>
<!-- 25 -->
<g id="node26" class="node"><title>25</title>
<ellipse fill="red" stroke="black" cx="1090.35" cy="-378" rx="51.1914" ry="18"/>
<text text-anchor="middle" x="1090.35" y="-374.3" font-family="Times New Roman,serif" font-size="14.00">seleccionar</text>
</g>
<!-- 24&#45;&gt;25 -->
<g id="edge25" class="edge"><title>24&#45;&gt;25</title>
<path fill="none" stroke="black" d="M1326.22,-438.415C1280.98,-428.11 1210.81,-411.742 1150.35,-396 1146.51,-395 1142.54,-393.939 1138.55,-392.853"/>
<polygon fill="black" stroke="black" points="1139.26,-389.417 1128.69,-390.127 1137.4,-396.164 1139.26,-389.417"/>
</g>
<!-- 26 -->
<g id="node27" class="node"><title>26</title>
<ellipse fill="red" stroke="black" cx="1287.35" cy="-378" rx="128.077" ry="18"/>
<text text-anchor="middle" x="1287.35" y="-374.3" font-family="Times New Roman,serif" font-size="14.00">PARAMETROS_SELECCION</text>
</g>
<!-- 24&#45;&gt;26 -->
<g id="edge26" class="edge"><title>24&#45;&gt;26</title>
<path fill="none" stroke="black" d="M1353.4,-432.765C1342.25,-423.687 1328.16,-412.218 1315.86,-402.207"/>
<polygon fill="black" stroke="black" points="1318.05,-399.476 1308.08,-395.878 1313.63,-404.905 1318.05,-399.476"/>
</g>
<!-- 34 -->
<g id="node35" class="node"><title>34</title>
<ellipse fill="red" stroke="black" cx="1460.35" cy="-378" rx="27" ry="18"/>
<text text-anchor="middle" x="1460.35" y="-374.3" font-family="Times New Roman,serif" font-size="14.00">de</text>
</g>
<!-- 24&#45;&gt;34 -->
<g id="edge34" class="edge"><title>24&#45;&gt;34</title>
<path fill="none" stroke="black" d="M1393.52,-432.765C1406.16,-422.597 1422.53,-409.43 1435.9,-398.671"/>
<polygon fill="black" stroke="black" points="1438.18,-401.327 1443.78,-392.331 1433.79,-395.873 1438.18,-401.327"/>
</g>
<!-- 35 -->
<g id="node36" class="node"><title>35</title>
<ellipse fill="red" stroke="black" cx="1582.35" cy="-378" rx="76.8869" ry="18"/>
<text text-anchor="middle" x="1582.35" y="-374.3" font-family="Times New Roman,serif" font-size="14.00">LISTA_TABLAS</text>
</g>
<!-- 24&#45;&gt;35 -->
<g id="edge35" class="edge"><title>24&#45;&gt;35</title>
<path fill="none" stroke="black" d="M1412.17,-435.998C1445.54,-424.819 1493.95,-408.605 1530.61,-396.326"/>
<polygon fill="black" stroke="black" points="1531.77,-399.63 1540.14,-393.135 1529.55,-392.992 1531.77,-399.63"/>
</g>
<!-- 27 -->
<g id="node28" class="node"><title>27</title>
<ellipse fill="red" stroke="black" cx="888.345" cy="-306" rx="59.5901" ry="18"/>
<text text-anchor="middle" x="888.345" y="-302.3" font-family="Times New Roman,serif" font-size="14.00">departamento</text>
</g>
<!-- 26&#45;&gt;27 -->
<g id="edge27" class="edge"><title>26&#45;&gt;27</title>
<path fill="none" stroke="black" d="M1199.45,-364.893C1132.75,-355.222 1038.95,-340.576 957.345,-324 952.335,-322.982 947.14,-321.849 941.949,-320.663"/>
<polygon fill="black" stroke="black" points="942.56,-317.212 932.025,-318.337 940.962,-324.027 942.56,-317.212"/>
</g>
<!-- 28 -->
<g id="node29" class="node"><title>28</title>
<ellipse fill="red" stroke="black" cx="1098.35" cy="-306" rx="131.877" ry="18"/>
<text text-anchor="middle" x="1098.35" y="-302.3" font-family="Times New Roman,serif" font-size="14.00">PARAMETROS_SELECCION2</text>
</g>
<!-- 26&#45;&gt;28 -->
<g id="edge28" class="edge"><title>26&#45;&gt;28</title>
<path fill="none" stroke="black" d="M1243.99,-360.941C1216.47,-350.75 1180.68,-337.494 1151.47,-326.674"/>
<polygon fill="black" stroke="black" points="1152.42,-323.297 1141.83,-323.106 1149.99,-329.861 1152.42,-323.297"/>
</g>
<!-- 30 -->
<g id="node31" class="node"><title>30</title>
<ellipse fill="red" stroke="black" cx="1376.35" cy="-306" rx="128.077" ry="18"/>
<text text-anchor="middle" x="1376.35" y="-302.3" font-family="Times New Roman,serif" font-size="14.00">PARAMETROS_SELECCION</text>
</g>
<!-- 26&#45;&gt;30 -->
<g id="edge30" class="edge"><title>26&#45;&gt;30</title>
<path fill="none" stroke="black" d="M1308.89,-360.055C1320.37,-351.027 1334.65,-339.792 1347.12,-329.987"/>
<polygon fill="black" stroke="black" points="1349.3,-332.722 1355,-323.789 1344.98,-327.22 1349.3,-332.722"/>
</g>
<!-- 29 -->
<g id="node30" class="node"><title>29</title>
<ellipse fill="red" stroke="black" cx="1098.35" cy="-234" rx="71.4873" ry="18"/>
<text text-anchor="middle" x="1098.35" y="-230.3" font-family="Times New Roman,serif" font-size="14.00">id_departamento</text>
</g>
<!-- 28&#45;&gt;29 -->
<g id="edge29" class="edge"><title>28&#45;&gt;29</title>
<path fill="none" stroke="black" d="M1098.35,-287.697C1098.35,-279.983 1098.35,-270.712 1098.35,-262.112"/>
<polygon fill="black" stroke="black" points="1101.85,-262.104 1098.35,-252.104 1094.85,-262.104 1101.85,-262.104"/>
</g>
<!-- 31 -->
<g id="node32" class="node"><title>31</title>
<ellipse fill="red" stroke="black" cx="1311.35" cy="-234" rx="59.5901" ry="18"/>
<text text-anchor="middle" x="1311.35" y="-230.3" font-family="Times New Roman,serif" font-size="14.00">departamento</text>
</g>
<!-- 30&#45;&gt;31 -->
<g id="edge31" class="edge"><title>30&#45;&gt;31</title>
<path fill="none" stroke="black" d="M1360.61,-288.055C1352.63,-279.457 1342.78,-268.857 1334,-259.397"/>
<polygon fill="black" stroke="black" points="1336.3,-256.735 1326.94,-251.789 1331.17,-261.499 1336.3,-256.735"/>
</g>
<!-- 32 -->
<g id="node33" class="node"><title>32</title>
<ellipse fill="red" stroke="black" cx="1521.35" cy="-234" rx="131.877" ry="18"/>
<text text-anchor="middle" x="1521.35" y="-230.3" font-family="Times New Roman,serif" font-size="14.00">PARAMETROS_SELECCION2</text>
</g>
<!-- 30&#45;&gt;32 -->
<g id="edge32" class="edge"><title>30&#45;&gt;32</title>
<path fill="none" stroke="black" d="M1410.34,-288.588C1430.63,-278.794 1456.59,-266.264 1478.3,-255.783"/>
<polygon fill="black" stroke="black" points="1479.83,-258.93 1487.31,-251.43 1476.78,-252.626 1479.83,-258.93"/>
</g>
<!-- 33 -->
<g id="node34" class="node"><title>33</title>
<ellipse fill="red" stroke="black" cx="1521.35" cy="-162" rx="38.1938" ry="18"/>
<text text-anchor="middle" x="1521.35" y="-158.3" font-family="Times New Roman,serif" font-size="14.00">nombre</text>
</g>
<!-- 32&#45;&gt;33 -->
<g id="edge33" class="edge"><title>32&#45;&gt;33</title>
<path fill="none" stroke="black" d="M1521.35,-215.697C1521.35,-207.983 1521.35,-198.712 1521.35,-190.112"/>
<polygon fill="black" stroke="black" points="1524.85,-190.104 1521.35,-180.104 1517.85,-190.104 1524.85,-190.104"/>
</g>
<!-- 36 -->
<g id="node37" class="node"><title>36</title>
<ellipse fill="red" stroke="black" cx="1582.35" cy="-306" rx="59.5901" ry="18"/>
<text text-anchor="middle" x="1582.35" y="-302.3" font-family="Times New Roman,serif" font-size="14.00">departamento</text>
</g>
<!-- 35&#45;&gt;36 -->
<g id="edge36" class="edge"><title>35&#45;&gt;36</title>
<path fill="none" stroke="black" d="M1582.35,-359.697C1582.35,-351.983 1582.35,-342.712 1582.35,-334.112"/>
<polygon fill="black" stroke="black" points="1585.85,-334.104 1582.35,-324.104 1578.85,-334.104 1585.85,-334.104"/>
</g>
<!-- 38 -->
<g id="node39" class="node"><title>38</title>
<ellipse fill="red" stroke="black" cx="1995.35" cy="-378" rx="61.1893" ry="18"/>
<text text-anchor="middle" x="1995.35" y="-374.3" font-family="Times New Roman,serif" font-size="14.00">SELECCION</text>
</g>
<!-- 37&#45;&gt;38 -->
<g id="edge38" class="edge"><title>37&#45;&gt;38</title>
<path fill="none" stroke="black" d="M1836.33,-435.503C1868.18,-424.185 1913.82,-407.97 1948.04,-395.81"/>
<polygon fill="black" stroke="black" points="1949.56,-398.983 1957.81,-392.336 1947.22,-392.387 1949.56,-398.983"/>
</g>
<!-- 39 -->
<g id="node40" class="node"><title>39</title>
<ellipse fill="red" stroke="black" cx="1711.35" cy="-306" rx="51.1914" ry="18"/>
<text text-anchor="middle" x="1711.35" y="-302.3" font-family="Times New Roman,serif" font-size="14.00">seleccionar</text>
</g>
<!-- 38&#45;&gt;39 -->
<g id="edge39" class="edge"><title>38&#45;&gt;39</title>
<path fill="none" stroke="black" d="M1948,-366.431C1902.56,-356.138 1832.07,-339.779 1771.35,-324 1767.51,-323.002 1763.54,-321.942 1759.55,-320.857"/>
<polygon fill="black" stroke="black" points="1760.26,-317.421 1749.69,-318.133 1758.39,-324.169 1760.26,-317.421"/>
</g>
<!-- 40 -->
<g id="node41" class="node"><title>40</title>
<ellipse fill="red" stroke="black" cx="1908.35" cy="-306" rx="128.077" ry="18"/>
<text text-anchor="middle" x="1908.35" y="-302.3" font-family="Times New Roman,serif" font-size="14.00">PARAMETROS_SELECCION</text>
</g>
<!-- 38&#45;&gt;40 -->
<g id="edge40" class="edge"><title>38&#45;&gt;40</title>
<path fill="none" stroke="black" d="M1975.17,-360.765C1963.88,-351.687 1949.63,-340.218 1937.19,-330.207"/>
<polygon fill="black" stroke="black" points="1939.31,-327.42 1929.32,-323.878 1934.92,-332.874 1939.31,-327.42"/>
</g>
<!-- 42 -->
<g id="node43" class="node"><title>42</title>
<ellipse fill="red" stroke="black" cx="2081.35" cy="-306" rx="27" ry="18"/>
<text text-anchor="middle" x="2081.35" y="-302.3" font-family="Times New Roman,serif" font-size="14.00">de</text>
</g>
<!-- 38&#45;&gt;42 -->
<g id="edge42" class="edge"><title>38&#45;&gt;42</title>
<path fill="none" stroke="black" d="M2015.29,-360.765C2027.78,-350.597 2043.96,-337.43 2057.18,-326.671"/>
<polygon fill="black" stroke="black" points="2059.42,-329.358 2064.97,-320.331 2055,-323.93 2059.42,-329.358"/>
</g>
<!-- 43 -->
<g id="node44" class="node"><title>43</title>
<ellipse fill="red" stroke="black" cx="2203.35" cy="-306" rx="76.8869" ry="18"/>
<text text-anchor="middle" x="2203.35" y="-302.3" font-family="Times New Roman,serif" font-size="14.00">LISTA_TABLAS</text>
</g>
<!-- 38&#45;&gt;43 -->
<g id="edge43" class="edge"><title>38&#45;&gt;43</title>
<path fill="none" stroke="black" d="M2033.98,-363.998C2067.2,-352.819 2115.38,-336.605 2151.86,-324.326"/>
<polygon fill="black" stroke="black" points="2152.98,-327.642 2161.34,-321.135 2150.75,-321.008 2152.98,-327.642"/>
</g>
<!-- 45 -->
<g id="node46" class="node"><title>45</title>
<ellipse fill="red" stroke="black" cx="2415.35" cy="-306" rx="116.979" ry="18"/>
<text text-anchor="middle" x="2415.35" y="-302.3" font-family="Times New Roman,serif" font-size="14.00">CONDICION_SELECCION</text>
</g>
<!-- 38&#45;&gt;45 -->
<g id="edge45" class="edge"><title>38&#45;&gt;45</title>
<path fill="none" stroke="black" d="M2047.27,-368.346C2117.67,-356.612 2244.35,-335.499 2329.15,-321.367"/>
<polygon fill="black" stroke="black" points="2329.73,-324.818 2339.02,-319.722 2328.58,-317.913 2329.73,-324.818"/>
</g>
<!-- 41 -->
<g id="node42" class="node"><title>41</title>
<ellipse fill="red" stroke="black" cx="1908.35" cy="-234" rx="27" ry="18"/>
<text text-anchor="middle" x="1908.35" y="-230.3" font-family="Times New Roman,serif" font-size="14.00">*</text>
</g>
<!-- 40&#45;&gt;41 -->
<g id="edge41" class="edge"><title>40&#45;&gt;41</title>
<path fill="none" stroke="black" d="M1908.35,-287.697C1908.35,-279.983 1908.35,-270.712 1908.35,-262.112"/>
<polygon fill="black" stroke="black" points="1911.85,-262.104 1908.35,-252.104 1904.85,-262.104 1911.85,-262.104"/>
</g>
<!-- 44 -->
<g id="node45" class="node"><title>44</title>
<ellipse fill="red" stroke="black" cx="2203.35" cy="-234" rx="59.5901" ry="18"/>
<text text-anchor="middle" x="2203.35" y="-230.3" font-family="Times New Roman,serif" font-size="14.00">departamento</text>
</g>
<!-- 43&#45;&gt;44 -->
<g id="edge44" class="edge"><title>43&#45;&gt;44</title>
<path fill="none" stroke="black" d="M2203.35,-287.697C2203.35,-279.983 2203.35,-270.712 2203.35,-262.112"/>
<polygon fill="black" stroke="black" points="2206.85,-262.104 2203.35,-252.104 2199.85,-262.104 2206.85,-262.104"/>
</g>
<!-- 46 -->
<g id="node47" class="node"><title>46</title>
<ellipse fill="red" stroke="black" cx="2365.35" cy="-234" rx="33.5952" ry="18"/>
<text text-anchor="middle" x="2365.35" y="-230.3" font-family="Times New Roman,serif" font-size="14.00">donde</text>
</g>
<!-- 45&#45;&gt;46 -->
<g id="edge46" class="edge"><title>45&#45;&gt;46</title>
<path fill="none" stroke="black" d="M2403.24,-288.055C2397.13,-279.505 2389.61,-268.975 2382.89,-259.556"/>
<polygon fill="black" stroke="black" points="2385.65,-257.41 2376.99,-251.307 2379.96,-261.479 2385.65,-257.41"/>
</g>
<!-- 47 -->
<g id="node48" class="node"><title>47</title>
<ellipse fill="red" stroke="black" cx="2490.35" cy="-234" rx="72.5877" ry="18"/>
<text text-anchor="middle" x="2490.35" y="-230.3" font-family="Times New Roman,serif" font-size="14.00">CONDICIONES</text>
</g>
<!-- 45&#45;&gt;47 -->
<g id="edge47" class="edge"><title>45&#45;&gt;47</title>
<path fill="none" stroke="black" d="M2433.5,-288.055C2442.97,-279.22 2454.7,-268.272 2465.04,-258.62"/>
<polygon fill="black" stroke="black" points="2467.69,-260.929 2472.62,-251.547 2462.92,-255.812 2467.69,-260.929"/>
</g>
<!-- 48 -->
<g id="node49" class="node"><title>48</title>
<ellipse fill="red" stroke="black" cx="2268.35" cy="-162" rx="71.4873" ry="18"/>
<text text-anchor="middle" x="2268.35" y="-158.3" font-family="Times New Roman,serif" font-size="14.00">id_departamento</text>
</g>
<!-- 47&#45;&gt;48 -->
<g id="edge48" class="edge"><title>47&#45;&gt;48</title>
<path fill="none" stroke="black" d="M2447.28,-219.42C2411.28,-208.07 2359.79,-191.835 2321.29,-179.693"/>
<polygon fill="black" stroke="black" points="2321.88,-176.211 2311.29,-176.542 2319.78,-182.887 2321.88,-176.211"/>
</g>
<!-- 49 -->
<g id="node50" class="node"><title>49</title>
<ellipse fill="red" stroke="black" cx="2431.35" cy="-162" rx="73.387" ry="18"/>
<text text-anchor="middle" x="2431.35" y="-158.3" font-family="Times New Roman,serif" font-size="14.00">CONDICIONAL</text>
</g>
<!-- 47&#45;&gt;49 -->
<g id="edge49" class="edge"><title>47&#45;&gt;49</title>
<path fill="none" stroke="black" d="M2476.06,-216.055C2468.89,-207.543 2460.06,-197.068 2452.15,-187.681"/>
<polygon fill="black" stroke="black" points="2454.62,-185.18 2445.5,-179.789 2449.26,-189.691 2454.62,-185.18"/>
</g>
<!-- 51 -->
<g id="node52" class="node"><title>51</title>
<ellipse fill="red" stroke="black" cx="2549.35" cy="-162" rx="27" ry="18"/>
<text text-anchor="middle" x="2549.35" y="-158.3" font-family="Times New Roman,serif" font-size="14.00">5</text>
</g>
<!-- 47&#45;&gt;51 -->
<g id="edge51" class="edge"><title>47&#45;&gt;51</title>
<path fill="none" stroke="black" d="M2504.63,-216.055C2512.19,-207.077 2521.6,-195.917 2529.83,-186.152"/>
<polygon fill="black" stroke="black" points="2532.63,-188.258 2536.4,-178.356 2527.28,-183.747 2532.63,-188.258"/>
</g>
<!-- 52 -->
<g id="node53" class="node"><title>52</title>
<ellipse fill="red" stroke="black" cx="2667.35" cy="-162" rx="72.5877" ry="18"/>
<text text-anchor="middle" x="2667.35" y="-158.3" font-family="Times New Roman,serif" font-size="14.00">CONDICIONES</text>
</g>
<!-- 47&#45;&gt;52 -->
<g id="edge52" class="edge"><title>47&#45;&gt;52</title>
<path fill="none" stroke="black" d="M2527.45,-218.326C2554.59,-207.592 2591.6,-192.956 2620.74,-181.433"/>
<polygon fill="black" stroke="black" points="2622.28,-184.587 2630.29,-177.655 2619.7,-178.078 2622.28,-184.587"/>
</g>
<!-- 50 -->
<g id="node51" class="node"><title>50</title>
<ellipse fill="red" stroke="black" cx="2431.35" cy="-90" rx="27" ry="18"/>
<text text-anchor="middle" x="2431.35" y="-86.3" font-family="Times New Roman,serif" font-size="14.00">=</text>
</g>
<!-- 49&#45;&gt;50 -->
<g id="edge50" class="edge"><title>49&#45;&gt;50</title>
<path fill="none" stroke="black" d="M2431.35,-143.697C2431.35,-135.983 2431.35,-126.712 2431.35,-118.112"/>
<polygon fill="black" stroke="black" points="2434.85,-118.104 2431.35,-108.104 2427.85,-118.104 2434.85,-118.104"/>
</g>
<!-- 53 -->
<g id="node54" class="node"><title>53</title>
<ellipse fill="red" stroke="black" cx="2527.35" cy="-90" rx="27" ry="18"/>
<text text-anchor="middle" x="2527.35" y="-86.3" font-family="Times New Roman,serif" font-size="14.00">o</text>
</g>
<!-- 52&#45;&gt;53 -->
<g id="edge53" class="edge"><title>52&#45;&gt;53</title>
<path fill="none" stroke="black" d="M2636.62,-145.638C2613.13,-133.895 2580.93,-117.79 2557.56,-106.11"/>
<polygon fill="black" stroke="black" points="2558.97,-102.898 2548.46,-101.557 2555.84,-109.159 2558.97,-102.898"/>
</g>
<!-- 54 -->
<g id="node55" class="node"><title>54</title>
<ellipse fill="red" stroke="black" cx="2643.35" cy="-90" rx="71.4873" ry="18"/>
<text text-anchor="middle" x="2643.35" y="-86.3" font-family="Times New Roman,serif" font-size="14.00">id_departamento</text>
</g>
<!-- 52&#45;&gt;54 -->
<g id="edge54" class="edge"><title>52&#45;&gt;54</title>
<path fill="none" stroke="black" d="M2661.54,-144.055C2658.83,-136.176 2655.56,-126.617 2652.53,-117.794"/>
<polygon fill="black" stroke="black" points="2655.82,-116.6 2649.27,-108.275 2649.2,-118.87 2655.82,-116.6"/>
</g>
<!-- 55 -->
<g id="node56" class="node"><title>55</title>
<ellipse fill="red" stroke="black" cx="2806.35" cy="-90" rx="73.387" ry="18"/>
<text text-anchor="middle" x="2806.35" y="-86.3" font-family="Times New Roman,serif" font-size="14.00">CONDICIONAL</text>
</g>
<!-- 52&#45;&gt;55 -->
<g id="edge55" class="edge"><title>52&#45;&gt;55</title>
<path fill="none" stroke="black" d="M2697.85,-145.638C2717.99,-135.496 2744.59,-122.102 2766.41,-111.113"/>
<polygon fill="black" stroke="black" points="2768.07,-114.192 2775.43,-106.568 2764.93,-107.94 2768.07,-114.192"/>
</g>
<!-- 57 -->
<g id="node58" class="node"><title>57</title>
<ellipse fill="red" stroke="black" cx="2924.35" cy="-90" rx="27" ry="18"/>
<text text-anchor="middle" x="2924.35" y="-86.3" font-family="Times New Roman,serif" font-size="14.00">1</text>
</g>
<!-- 52&#45;&gt;57 -->
<g id="edge57" class="edge"><title>52&#45;&gt;57</title>
<path fill="none" stroke="black" d="M2724.13,-150.734C2769.32,-141.767 2833.82,-127.183 2888.35,-108 2890.25,-107.329 2892.19,-106.59 2894.14,-105.806"/>
<polygon fill="black" stroke="black" points="2895.94,-108.837 2903.71,-101.632 2893.15,-102.42 2895.94,-108.837"/>
</g>
<!-- 56 -->
<g id="node57" class="node"><title>56</title>
<ellipse fill="red" stroke="black" cx="2806.35" cy="-18" rx="27" ry="18"/>
<text text-anchor="middle" x="2806.35" y="-14.3" font-family="Times New Roman,serif" font-size="14.00">&lt;</text>
</g>
<!-- 55&#45;&gt;56 -->
<g id="edge56" class="edge"><title>55&#45;&gt;56</title>
<path fill="none" stroke="black" d="M2806.35,-71.6966C2806.35,-63.9827 2806.35,-54.7125 2806.35,-46.1124"/>
<polygon fill="black" stroke="black" points="2809.85,-46.1043 2806.35,-36.1043 2802.85,-46.1044 2809.85,-46.1043"/>
</g>
</g>
</svg>
