<?xml version="1.0" encoding="UTF-8" standalone="no"?>
<!DOCTYPE svg PUBLIC "-//W3C//DTD SVG 1.1//EN"
 "http://www.w3.org/Graphics/SVG/1.1/DTD/svg11.dtd">
<!-- Generated by graphviz version 2.38.0 (20140413.2041)
 -->
<!-- Title: G Pages: 1 -->
<svg width="1509pt" height="764pt"
 viewBox="0.00 0.00 1509.35 764.00" xmlns="http://www.w3.org/2000/svg" xmlns:xlink="http://www.w3.org/1999/xlink">
<g id="graph0" class="graph" transform="scale(1 1) rotate(0) translate(4 760)">
<title>G</title>
<polygon fill="white" stroke="none" points="-4,4 -4,-760 1505.35,-760 1505.35,4 -4,4"/>
<!-- 0 -->
<g id="node1" class="node"><title>0</title>
<ellipse fill="red" stroke="black" cx="251.347" cy="-738" rx="38.9931" ry="18"/>
<text text-anchor="middle" x="251.347" y="-734.3" font-family="Times New Roman,serif" font-size="14.00">INICIO</text>
</g>
<!-- 1 -->
<g id="node2" class="node"><title>1</title>
<ellipse fill="red" stroke="black" cx="251.347" cy="-666" rx="72.5877" ry="18"/>
<text text-anchor="middle" x="251.347" y="-662.3" font-family="Times New Roman,serif" font-size="14.00">INSTRUCCION</text>
</g>
<!-- 0&#45;&gt;1 -->
<g id="edge1" class="edge"><title>0&#45;&gt;1</title>
<path fill="none" stroke="black" d="M251.347,-719.697C251.347,-711.983 251.347,-702.712 251.347,-694.112"/>
<polygon fill="black" stroke="black" points="254.847,-694.104 251.347,-684.104 247.847,-694.104 254.847,-694.104"/>
</g>
<!-- 2 -->
<g id="node3" class="node"><title>2</title>
<ellipse fill="red" stroke="black" cx="251.347" cy="-594" rx="63.8893" ry="18"/>
<text text-anchor="middle" x="251.347" y="-590.3" font-family="Times New Roman,serif" font-size="14.00">OPERACION</text>
</g>
<!-- 1&#45;&gt;2 -->
<g id="edge2" class="edge"><title>1&#45;&gt;2</title>
<path fill="none" stroke="black" d="M251.347,-647.697C251.347,-639.983 251.347,-630.712 251.347,-622.112"/>
<polygon fill="black" stroke="black" points="254.847,-622.104 251.347,-612.104 247.847,-622.104 254.847,-622.104"/>
</g>
<!-- 3 -->
<g id="node4" class="node"><title>3</title>
<ellipse fill="red" stroke="black" cx="148.347" cy="-522" rx="70.3881" ry="18"/>
<text text-anchor="middle" x="148.347" y="-518.3" font-family="Times New Roman,serif" font-size="14.00">ELIMINACION</text>
</g>
<!-- 2&#45;&gt;3 -->
<g id="edge3" class="edge"><title>2&#45;&gt;3</title>
<path fill="none" stroke="black" d="M227.974,-577.116C213.982,-567.607 195.995,-555.382 180.657,-544.959"/>
<polygon fill="black" stroke="black" points="182.221,-541.79 171.983,-539.064 178.286,-547.579 182.221,-541.79"/>
</g>
<!-- 7 -->
<g id="node8" class="node"><title>7</title>
<ellipse fill="red" stroke="black" cx="354.347" cy="-522" rx="63.8893" ry="18"/>
<text text-anchor="middle" x="354.347" y="-518.3" font-family="Times New Roman,serif" font-size="14.00">OPERACION</text>
</g>
<!-- 2&#45;&gt;7 -->
<g id="edge7" class="edge"><title>2&#45;&gt;7</title>
<path fill="none" stroke="black" d="M274.719,-577.116C288.942,-567.45 307.293,-554.978 322.793,-544.444"/>
<polygon fill="black" stroke="black" points="324.763,-547.337 331.067,-538.821 320.829,-541.547 324.763,-547.337"/>
</g>
<!-- 4 -->
<g id="node5" class="node"><title>4</title>
<ellipse fill="red" stroke="black" cx="38.3466" cy="-450" rx="38.1938" ry="18"/>
<text text-anchor="middle" x="38.3466" y="-446.3" font-family="Times New Roman,serif" font-size="14.00">eliminar</text>
</g>
<!-- 3&#45;&gt;4 -->
<g id="edge4" class="edge"><title>3&#45;&gt;4</title>
<path fill="none" stroke="black" d="M123.386,-505.116C107.192,-494.811 85.987,-481.317 68.8029,-470.381"/>
<polygon fill="black" stroke="black" points="70.5469,-467.343 60.2311,-464.927 66.7887,-473.248 70.5469,-467.343"/>
</g>
<!-- 5 -->
<g id="node6" class="node"><title>5</title>
<ellipse fill="red" stroke="black" cx="121.347" cy="-450" rx="27" ry="18"/>
<text text-anchor="middle" x="121.347" y="-446.3" font-family="Times New Roman,serif" font-size="14.00">de</text>
</g>
<!-- 3&#45;&gt;5 -->
<g id="edge5" class="edge"><title>3&#45;&gt;5</title>
<path fill="none" stroke="black" d="M141.811,-504.055C138.726,-496.059 134.974,-486.331 131.529,-477.4"/>
<polygon fill="black" stroke="black" points="134.687,-475.859 127.822,-467.789 128.156,-478.379 134.687,-475.859"/>
</g>
<!-- 6 -->
<g id="node7" class="node"><title>6</title>
<ellipse fill="red" stroke="black" cx="230.347" cy="-450" rx="63.8893" ry="18"/>
<text text-anchor="middle" x="230.347" y="-446.3" font-family="Times New Roman,serif" font-size="14.00">departamentos</text>
</g>
<!-- 3&#45;&gt;6 -->
<g id="edge6" class="edge"><title>3&#45;&gt;6</title>
<path fill="none" stroke="black" d="M167.779,-504.411C178.477,-495.279 191.913,-483.809 203.589,-473.842"/>
<polygon fill="black" stroke="black" points="206.003,-476.383 211.336,-467.228 201.458,-471.059 206.003,-476.383"/>
</g>
<!-- 8 -->
<g id="node9" class="node"><title>8</title>
<ellipse fill="red" stroke="black" cx="382.347" cy="-450" rx="70.3881" ry="18"/>
<text text-anchor="middle" x="382.347" y="-446.3" font-family="Times New Roman,serif" font-size="14.00">ELIMINACION</text>
</g>
<!-- 7&#45;&gt;8 -->
<g id="edge8" class="edge"><title>7&#45;&gt;8</title>
<path fill="none" stroke="black" d="M361.125,-504.055C364.276,-496.176 368.1,-486.617 371.629,-477.794"/>
<polygon fill="black" stroke="black" points="374.972,-478.86 375.436,-468.275 368.473,-476.26 374.972,-478.86"/>
</g>
<!-- 9 -->
<g id="node10" class="node"><title>9</title>
<ellipse fill="red" stroke="black" cx="244.347" cy="-378" rx="38.1938" ry="18"/>
<text text-anchor="middle" x="244.347" y="-374.3" font-family="Times New Roman,serif" font-size="14.00">eliminar</text>
</g>
<!-- 8&#45;&gt;9 -->
<g id="edge9" class="edge"><title>8&#45;&gt;9</title>
<path fill="none" stroke="black" d="M352.062,-433.638C330.402,-422.651 301.216,-407.847 278.688,-396.42"/>
<polygon fill="black" stroke="black" points="279.984,-393.152 269.482,-391.75 276.817,-399.395 279.984,-393.152"/>
</g>
<!-- 10 -->
<g id="node11" class="node"><title>10</title>
<ellipse fill="red" stroke="black" cx="327.347" cy="-378" rx="27" ry="18"/>
<text text-anchor="middle" x="327.347" y="-374.3" font-family="Times New Roman,serif" font-size="14.00">de</text>
</g>
<!-- 8&#45;&gt;10 -->
<g id="edge10" class="edge"><title>8&#45;&gt;10</title>
<path fill="none" stroke="black" d="M369.033,-432.055C362.049,-423.167 353.385,-412.14 345.768,-402.446"/>
<polygon fill="black" stroke="black" points="348.343,-400.057 339.412,-394.356 342.838,-404.382 348.343,-400.057"/>
</g>
<!-- 11 -->
<g id="node12" class="node"><title>11</title>
<ellipse fill="red" stroke="black" cx="436.347" cy="-378" rx="63.8893" ry="18"/>
<text text-anchor="middle" x="436.347" y="-374.3" font-family="Times New Roman,serif" font-size="14.00">departamentos</text>
</g>
<!-- 8&#45;&gt;11 -->
<g id="edge11" class="edge"><title>8&#45;&gt;11</title>
<path fill="none" stroke="black" d="M395.418,-432.055C401.919,-423.629 409.902,-413.28 417.087,-403.966"/>
<polygon fill="black" stroke="black" points="420.058,-405.845 423.395,-395.789 414.516,-401.569 420.058,-405.845"/>
</g>
<!-- 12 -->
<g id="node13" class="node"><title>12</title>
<ellipse fill="red" stroke="black" cx="644.347" cy="-378" rx="126.178" ry="18"/>
<text text-anchor="middle" x="644.347" y="-374.3" font-family="Times New Roman,serif" font-size="14.00">CONDICION_ELIMINACION</text>
</g>
<!-- 8&#45;&gt;12 -->
<g id="edge12" class="edge"><title>8&#45;&gt;12</title>
<path fill="none" stroke="black" d="M429.187,-436.485C470.549,-425.435 531.322,-409.198 577.738,-396.796"/>
<polygon fill="black" stroke="black" points="578.656,-400.174 587.413,-394.211 576.849,-393.411 578.656,-400.174"/>
</g>
<!-- 13 -->
<g id="node14" class="node"><title>13</title>
<ellipse fill="red" stroke="black" cx="581.347" cy="-306" rx="33.5952" ry="18"/>
<text text-anchor="middle" x="581.347" y="-302.3" font-family="Times New Roman,serif" font-size="14.00">donde</text>
</g>
<!-- 12&#45;&gt;13 -->
<g id="edge13" class="edge"><title>12&#45;&gt;13</title>
<path fill="none" stroke="black" d="M629.096,-360.055C621.05,-351.115 611.057,-340.012 602.295,-330.276"/>
<polygon fill="black" stroke="black" points="604.884,-327.921 595.593,-322.829 599.681,-332.604 604.884,-327.921"/>
</g>
<!-- 14 -->
<g id="node15" class="node"><title>14</title>
<ellipse fill="red" stroke="black" cx="706.347" cy="-306" rx="72.5877" ry="18"/>
<text text-anchor="middle" x="706.347" y="-302.3" font-family="Times New Roman,serif" font-size="14.00">CONDICIONES</text>
</g>
<!-- 12&#45;&gt;14 -->
<g id="edge14" class="edge"><title>12&#45;&gt;14</title>
<path fill="none" stroke="black" d="M659.355,-360.055C666.971,-351.457 676.359,-340.857 684.737,-331.397"/>
<polygon fill="black" stroke="black" points="687.466,-333.596 691.476,-323.789 682.226,-328.954 687.466,-333.596"/>
</g>
<!-- 15 -->
<g id="node16" class="node"><title>15</title>
<ellipse fill="red" stroke="black" cx="480.347" cy="-234" rx="75.2868" ry="18"/>
<text text-anchor="middle" x="480.347" y="-230.3" font-family="Times New Roman,serif" font-size="14.00">id_departamentos</text>
</g>
<!-- 14&#45;&gt;15 -->
<g id="edge15" class="edge"><title>14&#45;&gt;15</title>
<path fill="none" stroke="black" d="M662.772,-291.503C626.115,-280.15 573.545,-263.867 534.246,-251.695"/>
<polygon fill="black" stroke="black" points="535.147,-248.31 524.559,-248.694 533.076,-254.996 535.147,-248.31"/>
</g>
<!-- 16 -->
<g id="node17" class="node"><title>16</title>
<ellipse fill="red" stroke="black" cx="647.347" cy="-234" rx="73.387" ry="18"/>
<text text-anchor="middle" x="647.347" y="-230.3" font-family="Times New Roman,serif" font-size="14.00">CONDICIONAL</text>
</g>
<!-- 14&#45;&gt;16 -->
<g id="edge16" class="edge"><title>14&#45;&gt;16</title>
<path fill="none" stroke="black" d="M692.064,-288.055C684.89,-279.543 676.061,-269.068 668.15,-259.681"/>
<polygon fill="black" stroke="black" points="670.618,-257.18 661.497,-251.789 665.266,-261.691 670.618,-257.18"/>
</g>
<!-- 18 -->
<g id="node19" class="node"><title>18</title>
<ellipse fill="red" stroke="black" cx="765.347" cy="-234" rx="27" ry="18"/>
<text text-anchor="middle" x="765.347" y="-230.3" font-family="Times New Roman,serif" font-size="14.00">15</text>
</g>
<!-- 14&#45;&gt;18 -->
<g id="edge18" class="edge"><title>14&#45;&gt;18</title>
<path fill="none" stroke="black" d="M720.629,-288.055C728.196,-279.077 737.602,-267.917 745.832,-258.152"/>
<polygon fill="black" stroke="black" points="748.635,-260.258 752.403,-250.356 743.282,-255.747 748.635,-260.258"/>
</g>
<!-- 19 -->
<g id="node20" class="node"><title>19</title>
<ellipse fill="red" stroke="black" cx="914.347" cy="-234" rx="72.5877" ry="18"/>
<text text-anchor="middle" x="914.347" y="-230.3" font-family="Times New Roman,serif" font-size="14.00">CONDICIONES</text>
</g>
<!-- 14&#45;&gt;19 -->
<g id="edge19" class="edge"><title>14&#45;&gt;19</title>
<path fill="none" stroke="black" d="M747.939,-291.003C781.207,-279.807 827.995,-264.06 863.49,-252.115"/>
<polygon fill="black" stroke="black" points="864.82,-255.36 873.182,-248.854 862.588,-248.726 864.82,-255.36"/>
</g>
<!-- 17 -->
<g id="node18" class="node"><title>17</title>
<ellipse fill="red" stroke="black" cx="616.347" cy="-162" rx="27" ry="18"/>
<text text-anchor="middle" x="616.347" y="-158.3" font-family="Times New Roman,serif" font-size="14.00">=</text>
</g>
<!-- 16&#45;&gt;17 -->
<g id="edge17" class="edge"><title>16&#45;&gt;17</title>
<path fill="none" stroke="black" d="M639.842,-216.055C636.263,-207.973 631.9,-198.121 627.91,-189.112"/>
<polygon fill="black" stroke="black" points="631.031,-187.515 623.782,-179.789 624.631,-190.35 631.031,-187.515"/>
</g>
<!-- 20 -->
<g id="node21" class="node"><title>20</title>
<ellipse fill="red" stroke="black" cx="688.347" cy="-162" rx="27" ry="18"/>
<text text-anchor="middle" x="688.347" y="-158.3" font-family="Times New Roman,serif" font-size="14.00">o</text>
</g>
<!-- 19&#45;&gt;20 -->
<g id="edge20" class="edge"><title>19&#45;&gt;20</title>
<path fill="none" stroke="black" d="M862.793,-221.13C824.144,-211.63 770.237,-197.096 724.347,-180 722.501,-179.312 720.62,-178.567 718.734,-177.786"/>
<polygon fill="black" stroke="black" points="719.973,-174.507 709.411,-173.675 717.149,-180.912 719.973,-174.507"/>
</g>
<!-- 21 -->
<g id="node22" class="node"><title>21</title>
<ellipse fill="red" stroke="black" cx="808.347" cy="-162" rx="75.2868" ry="18"/>
<text text-anchor="middle" x="808.347" y="-158.3" font-family="Times New Roman,serif" font-size="14.00">id_departamentos</text>
</g>
<!-- 19&#45;&gt;21 -->
<g id="edge21" class="edge"><title>19&#45;&gt;21</title>
<path fill="none" stroke="black" d="M890.028,-216.941C875.588,-207.405 857.083,-195.184 841.338,-184.787"/>
<polygon fill="black" stroke="black" points="843.192,-181.817 832.919,-179.227 839.335,-187.658 843.192,-181.817"/>
</g>
<!-- 22 -->
<g id="node23" class="node"><title>22</title>
<ellipse fill="red" stroke="black" cx="975.347" cy="-162" rx="73.387" ry="18"/>
<text text-anchor="middle" x="975.347" y="-158.3" font-family="Times New Roman,serif" font-size="14.00">CONDICIONAL</text>
</g>
<!-- 19&#45;&gt;22 -->
<g id="edge22" class="edge"><title>19&#45;&gt;22</title>
<path fill="none" stroke="black" d="M929.113,-216.055C936.606,-207.457 945.843,-196.857 954.086,-187.397"/>
<polygon fill="black" stroke="black" points="956.785,-189.628 960.716,-179.789 951.508,-185.029 956.785,-189.628"/>
</g>
<!-- 24 -->
<g id="node25" class="node"><title>24</title>
<ellipse fill="red" stroke="black" cx="1093.35" cy="-162" rx="27" ry="18"/>
<text text-anchor="middle" x="1093.35" y="-158.3" font-family="Times New Roman,serif" font-size="14.00">16</text>
</g>
<!-- 19&#45;&gt;24 -->
<g id="edge24" class="edge"><title>19&#45;&gt;24</title>
<path fill="none" stroke="black" d="M955.084,-218.957C983.896,-208.769 1023.3,-194.317 1057.35,-180 1059.16,-179.236 1061.02,-178.432 1062.89,-177.606"/>
<polygon fill="black" stroke="black" points="1064.52,-180.709 1072.16,-173.375 1061.61,-174.341 1064.52,-180.709"/>
</g>
<!-- 25 -->
<g id="node26" class="node"><title>25</title>
<ellipse fill="red" stroke="black" cx="1211.35" cy="-162" rx="72.5877" ry="18"/>
<text text-anchor="middle" x="1211.35" y="-158.3" font-family="Times New Roman,serif" font-size="14.00">CONDICIONES</text>
</g>
<!-- 19&#45;&gt;25 -->
<g id="edge25" class="edge"><title>19&#45;&gt;25</title>
<path fill="none" stroke="black" d="M965.065,-221.046C1016.38,-208.952 1095.73,-190.249 1150.43,-177.358"/>
<polygon fill="black" stroke="black" points="1151.41,-180.723 1160.34,-175.022 1149.8,-173.909 1151.41,-180.723"/>
</g>
<!-- 23 -->
<g id="node24" class="node"><title>23</title>
<ellipse fill="red" stroke="black" cx="975.347" cy="-90" rx="27" ry="18"/>
<text text-anchor="middle" x="975.347" y="-86.3" font-family="Times New Roman,serif" font-size="14.00">=</text>
</g>
<!-- 22&#45;&gt;23 -->
<g id="edge23" class="edge"><title>22&#45;&gt;23</title>
<path fill="none" stroke="black" d="M975.347,-143.697C975.347,-135.983 975.347,-126.712 975.347,-118.112"/>
<polygon fill="black" stroke="black" points="978.847,-118.104 975.347,-108.104 971.847,-118.104 978.847,-118.104"/>
</g>
<!-- 26 -->
<g id="node27" class="node"><title>26</title>
<ellipse fill="red" stroke="black" cx="1069.35" cy="-90" rx="27" ry="18"/>
<text text-anchor="middle" x="1069.35" y="-86.3" font-family="Times New Roman,serif" font-size="14.00">y</text>
</g>
<!-- 25&#45;&gt;26 -->
<g id="edge26" class="edge"><title>25&#45;&gt;26</title>
<path fill="none" stroke="black" d="M1180.18,-145.638C1156.22,-133.824 1123.3,-117.596 1099.57,-105.899"/>
<polygon fill="black" stroke="black" points="1100.85,-102.628 1090.33,-101.346 1097.76,-108.907 1100.85,-102.628"/>
</g>
<!-- 27 -->
<g id="node28" class="node"><title>27</title>
<ellipse fill="red" stroke="black" cx="1189.35" cy="-90" rx="75.2868" ry="18"/>
<text text-anchor="middle" x="1189.35" y="-86.3" font-family="Times New Roman,serif" font-size="14.00">id_departamentos</text>
</g>
<!-- 25&#45;&gt;27 -->
<g id="edge27" class="edge"><title>25&#45;&gt;27</title>
<path fill="none" stroke="black" d="M1205.91,-143.697C1203.46,-135.898 1200.51,-126.509 1197.78,-117.829"/>
<polygon fill="black" stroke="black" points="1201.06,-116.595 1194.72,-108.104 1194.38,-118.694 1201.06,-116.595"/>
</g>
<!-- 28 -->
<g id="node29" class="node"><title>28</title>
<ellipse fill="red" stroke="black" cx="1356.35" cy="-90" rx="73.387" ry="18"/>
<text text-anchor="middle" x="1356.35" y="-86.3" font-family="Times New Roman,serif" font-size="14.00">CONDICIONAL</text>
</g>
<!-- 25&#45;&gt;28 -->
<g id="edge28" class="edge"><title>25&#45;&gt;28</title>
<path fill="none" stroke="black" d="M1243.17,-145.638C1264.42,-135.38 1292.56,-121.795 1315.46,-110.737"/>
<polygon fill="black" stroke="black" points="1317.12,-113.825 1324.6,-106.326 1314.07,-107.522 1317.12,-113.825"/>
</g>
<!-- 30 -->
<g id="node31" class="node"><title>30</title>
<ellipse fill="red" stroke="black" cx="1474.35" cy="-90" rx="27" ry="18"/>
<text text-anchor="middle" x="1474.35" y="-86.3" font-family="Times New Roman,serif" font-size="14.00">19</text>
</g>
<!-- 25&#45;&gt;30 -->
<g id="edge30" class="edge"><title>25&#45;&gt;30</title>
<path fill="none" stroke="black" d="M1269.21,-151.003C1315.66,-142.144 1382.17,-127.574 1438.35,-108 1440.26,-107.335 1442.2,-106.6 1444.14,-105.819"/>
<polygon fill="black" stroke="black" points="1445.95,-108.852 1453.72,-101.654 1443.15,-102.433 1445.95,-108.852"/>
</g>
<!-- 29 -->
<g id="node30" class="node"><title>29</title>
<ellipse fill="red" stroke="black" cx="1356.35" cy="-18" rx="27" ry="18"/>
<text text-anchor="middle" x="1356.35" y="-14.3" font-family="Times New Roman,serif" font-size="14.00">=</text>
</g>
<!-- 28&#45;&gt;29 -->
<g id="edge29" class="edge"><title>28&#45;&gt;29</title>
<path fill="none" stroke="black" d="M1356.35,-71.6966C1356.35,-63.9827 1356.35,-54.7125 1356.35,-46.1124"/>
<polygon fill="black" stroke="black" points="1359.85,-46.1043 1356.35,-36.1043 1352.85,-46.1044 1359.85,-46.1043"/>
</g>
</g>
</svg>
